# xmcd
#
# Track frame offsets:
#	150
#	26033
#	39713
#	65802
#	88521
#	109881
#	123092
#	145686
#	162826
#	184366
#	206433
#	231347
#
# Disc length: 3310 seconds
#
# Revision: 0
# Processed by: cddbd v1.5.2PL0 Copyright (c) Steve Scherf et al.
# Submitted via: audiograbber 1.83.01
#
DISCID=a90cec0c
DTITLE=Claudio Baglioni - SuperBest
DYEAR=1983
DGENRE=Pop
TTITLE0=Questo Piccolo Grande Amore
TTITLE1=Signora Lia
TTITLE2=Amore Bello
TTITLE3=Io Me Ne Andrei
TTITLE4=E Tu
TTITLE5=Notte Di Natale
TTITLE6=Sabato Pomeriggio
TTITLE7=Porta Portese
TTITLE8=Ragazza Di Campagna
TTITLE9=Solo
TTITLE10=Poster
TTITLE11=Chissà Se Mi Pensi
EXTD=
EXTT0=
EXTT1=
EXTT2=
EXTT3=
EXTT4=
EXTT5=
EXTT6=
EXTT7=
EXTT8=
EXTT9=
EXTT10=
EXTT11=
PLAYORDER=
